<?xml version="1.0" encoding="UTF-8"?>
<svg xmlns="http://www.w3.org/2000/svg" viewBox="0 0 144 144" width="144px" height="144px">
<g id="surface2177686">
<path style=" stroke:none;fill-rule:nonzero;fill:rgb(100%,100%,100%);fill-opacity:1;" d="M 72 12 C 67.269531 12 62.707031 12.597656 58.351562 13.609375 C 56.492188 14.046875 55.109375 15.609375 54.902344 17.507812 L 53.945312 26.214844 C 53.636719 29.066406 51.988281 31.59375 49.5 33.027344 C 47.019531 34.464844 44.007812 34.621094 41.378906 33.46875 L 41.375 33.46875 L 33.375 29.945312 C 31.625 29.179688 29.582031 29.597656 28.277344 30.988281 C 22.058594 37.617188 17.289062 45.644531 14.578125 54.601562 C 14.023438 56.429688 14.683594 58.410156 16.222656 59.535156 L 23.320312 64.738281 C 25.636719 66.445312 27 69.128906 27 72 C 27 74.875 25.636719 77.558594 23.320312 79.257812 L 16.222656 84.457031 C 14.683594 85.585938 14.023438 87.5625 14.578125 89.390625 C 17.289062 98.347656 22.054688 106.378906 28.277344 113.007812 C 29.585938 114.402344 31.628906 114.816406 33.375 114.046875 L 41.375 110.523438 C 44 109.371094 47.015625 109.535156 49.5 110.96875 C 51.988281 112.40625 53.636719 114.933594 53.945312 117.785156 L 54.902344 126.492188 C 55.109375 128.386719 56.492188 129.945312 58.347656 130.382812 C 62.703125 131.398438 67.269531 132 72 132 C 76.730469 132 81.292969 131.402344 85.648438 130.386719 C 87.507812 129.953125 88.890625 128.390625 89.097656 126.492188 L 90.054688 117.785156 C 90.363281 114.933594 92.011719 112.40625 94.5 110.96875 C 96.980469 109.535156 99.996094 109.371094 102.621094 110.523438 L 110.625 114.046875 C 112.371094 114.816406 114.414062 114.402344 115.722656 113.007812 C 121.941406 106.382812 126.710938 98.347656 129.421875 89.390625 C 129.976562 87.5625 129.316406 85.585938 127.777344 84.457031 L 120.679688 79.257812 C 118.363281 77.558594 117 74.875 117 72 C 117 69.125 118.363281 66.441406 120.679688 64.738281 L 127.777344 59.542969 C 129.316406 58.414062 129.976562 56.4375 129.421875 54.609375 C 126.710938 45.652344 121.941406 37.617188 115.722656 30.988281 C 114.414062 29.597656 112.371094 29.183594 110.625 29.953125 L 102.621094 33.472656 C 99.996094 34.628906 96.980469 34.464844 94.5 33.027344 C 92.011719 31.59375 90.363281 29.066406 90.054688 26.214844 L 89.097656 17.507812 C 88.890625 15.613281 87.507812 14.054688 85.652344 13.617188 C 81.296875 12.601562 76.730469 12 72 12 Z M 72 21 C 74.921875 21 77.730469 21.523438 80.542969 22.019531 L 81.105469 27.191406 C 81.730469 32.890625 85.039062 37.957031 90 40.820312 C 94.960938 43.6875 101.003906 44.019531 106.25 41.710938 L 111.003906 39.621094 C 114.660156 44.007812 117.550781 48.964844 119.574219 54.390625 L 115.355469 57.484375 C 110.734375 60.875 108 66.269531 108 72 C 108 77.730469 110.734375 83.125 115.355469 86.511719 L 119.574219 89.605469 C 117.550781 95.035156 114.660156 99.992188 111.003906 104.378906 L 106.25 102.285156 C 101.003906 99.980469 94.960938 100.3125 90 103.175781 C 85.039062 106.042969 81.730469 111.109375 81.105469 116.804688 L 80.542969 121.980469 C 77.730469 122.472656 74.921875 123 72 123 C 69.078125 123 66.269531 122.476562 63.457031 121.980469 L 62.894531 116.804688 C 62.269531 111.109375 58.960938 106.042969 54 103.175781 C 49.039062 100.3125 42.996094 99.980469 37.753906 102.285156 L 32.996094 104.378906 C 29.339844 99.992188 26.449219 95.035156 24.429688 89.605469 L 28.648438 86.511719 C 33.265625 83.125 36 77.730469 36 72 C 36 66.269531 33.261719 60.871094 28.648438 57.480469 L 24.429688 54.386719 C 26.449219 48.957031 29.34375 44.003906 33 39.613281 L 37.753906 41.707031 C 42.996094 44.011719 49.039062 43.6875 54 40.824219 C 58.960938 37.957031 62.269531 32.890625 62.894531 27.195312 L 63.457031 22.019531 C 66.269531 21.527344 69.078125 21 72 21 Z M 72 48 C 58.796875 48 48 58.796875 48 72 C 48 85.203125 58.796875 96 72 96 C 85.203125 96 96 85.203125 96 72 C 96 58.796875 85.203125 48 72 48 Z M 72 57 C 80.335938 57 87 63.664062 87 72 C 87 80.335938 80.335938 87 72 87 C 63.664062 87 57 80.335938 57 72 C 57 63.664062 63.664062 57 72 57 Z M 72 57 "/>
</g>
</svg>
