<?xml version="1.0" encoding="UTF-8" standalone="no"?><svg xmlns:svg="http://www.w3.org/2000/svg" xmlns="http://www.w3.org/2000/svg" xmlns:xlink="http://www.w3.org/1999/xlink" version="1.0" width="64px" height="64px" viewBox="0 0 128 128" xml:space="preserve"><g><path d="M56.9-.1h15.17V37H56.9V-.1z" fill="#8b0b0b"/><path d="M56.9-.1h15.17V37H56.9V-.1z" fill="#f3e6e6" transform="rotate(30 64 64)"/><path d="M56.9-.1h15.17V37H56.9V-.1z" fill="#f3e6e6" transform="rotate(60 64 64)"/><path d="M56.9-.1h15.17V37H56.9V-.1z" fill="#f3e6e6" transform="rotate(90 64 64)"/><path d="M56.9-.1h15.17V37H56.9V-.1z" fill="#e9d0d0" transform="rotate(120 64 64)"/><path d="M56.9-.1h15.17V37H56.9V-.1z" fill="#debaba" transform="rotate(150 64 64)"/><path d="M56.9-.1h15.17V37H56.9V-.1z" fill="#d3a3a3" transform="rotate(180 64 64)"/><path d="M56.9-.1h15.17V37H56.9V-.1z" fill="#c98e8e" transform="rotate(210 64 64)"/><path d="M56.9-.1h15.17V37H56.9V-.1z" fill="#bf7878" transform="rotate(240 64 64)"/><path d="M56.9-.1h15.17V37H56.9V-.1z" fill="#b56363" transform="rotate(270 64 64)"/><path d="M56.9-.1h15.17V37H56.9V-.1z" fill="#aa4c4c" transform="rotate(300 64 64)"/><path d="M56.9-.1h15.17V37H56.9V-.1z" fill="#a03737" transform="rotate(330 64 64)"/><animateTransform attributeName="transform" type="rotate" values="0 64 64;30 64 64;60 64 64;90 64 64;120 64 64;150 64 64;180 64 64;210 64 64;240 64 64;270 64 64;300 64 64;330 64 64" calcMode="discrete" dur="1320ms" repeatCount="indefinite"></animateTransform></g></svg>