<?xml version="1.0" encoding="UTF-8"?>
<svg xmlns="http://www.w3.org/2000/svg" viewBox="0 0 208 208" width="208px" height="208px">
<g id="surface3957010">
<path style=" stroke:none;fill-rule:nonzero;fill:rgb(60.000002%,60.000002%,60.000002%);fill-opacity:1;" d="M 142.9375 31.125 C 126.1875 31.125 111.84375 43.0625 103.96875 51.3125 C 96.125 43.0625 81.8125 31.125 65.0625 31.125 C 36.15625 31.125 16 51.25 16 80.0625 C 16 111.84375 41.0625 132.375 65.28125 152.21875 C 76.71875 161.59375 88.5625 171.28125 97.625 182.0625 C 99.15625 183.84375 101.40625 184.875 103.75 184.875 L 104.21875 184.875 C 106.59375 184.875 108.8125 183.84375 110.34375 182.0625 C 119.4375 171.28125 131.25 161.59375 142.71875 152.21875 C 166.9375 132.375 192 111.84375 192 80.0625 C 192 51.25 171.84375 31.125 142.9375 31.125 Z M 142.9375 31.125 "/>
</g>
</svg>
